<svg width="25" height="25" viewBox="0 0 25 25" fill="none" xmlns="http://www.w3.org/2000/svg">
<path d="M14.0691 6.27602H10.1465C9.74202 6.27602 9.41409 6.60395 9.41409 7.00844V12.552H8.57751C8.17302 12.552 7.84509 12.88 7.84509 13.2845C7.84509 13.689 8.17302 14.0169 8.57751 14.0169H9.41409V15.6901H8.57751C8.17302 15.6901 7.84509 16.018 7.84509 16.4225C7.84509 16.827 8.17302 17.1549 8.57751 17.1549H9.41409V18.776C9.41409 19.1805 9.74202 19.5084 10.1465 19.5084C10.551 19.5084 10.8789 19.1805 10.8789 18.776V17.1549H14.0691C14.4736 17.1549 14.8015 16.827 14.8015 16.4225C14.8015 16.018 14.4736 15.6901 14.0691 15.6901H10.8789V14.0169H14.0691C16.2032 14.0169 17.9395 12.2806 17.9395 10.1464C17.9395 7.95951 16.1581 6.27602 14.0691 6.27602ZM14.0691 12.552H10.8789V7.74086H14.0691C15.3875 7.74086 16.4747 8.80434 16.4747 10.1465C16.4746 11.4729 15.3955 12.552 14.0691 12.552Z" fill="#059669"/>
<path d="M12.5 0C5.60747 0 0 5.60747 0 12.5C0 19.3925 5.60747 25 12.5 25C19.3925 25 25 19.3925 25 12.5C25 5.60747 19.3925 0 12.5 0ZM12.5 23.5352C6.41519 23.5352 1.46484 18.5848 1.46484 12.5C1.46484 6.41519 6.41519 1.46484 12.5 1.46484C18.5848 1.46484 23.5352 6.41519 23.5352 12.5C23.5352 18.5848 18.5848 23.5352 12.5 23.5352Z" fill="#059669"/>
</svg>
