<svg width="25" height="25" viewBox="0 0 25 25" fill="none" xmlns="http://www.w3.org/2000/svg">
<path d="M14.0692 6.27603H10.1466C9.74214 6.27603 9.41421 6.60396 9.41421 7.00845V12.5521H8.57764C8.17314 12.5521 7.84521 12.88 7.84521 13.2845C7.84521 13.689 8.17314 14.0169 8.57764 14.0169H9.41421V15.6901H8.57764C8.17314 15.6901 7.84521 16.018 7.84521 16.4225C7.84521 16.827 8.17314 17.1549 8.57764 17.1549H9.41421V18.776C9.41421 19.1805 9.74214 19.5085 10.1466 19.5085C10.5511 19.5085 10.8791 19.1805 10.8791 18.776V17.1549H14.0692C14.4737 17.1549 14.8016 16.827 14.8016 16.4225C14.8016 16.018 14.4737 15.6901 14.0692 15.6901H10.8791V14.0169H14.0692C16.2034 14.0169 17.9397 12.2806 17.9397 10.1464C17.9396 7.95953 16.1582 6.27603 14.0692 6.27603V6.27603ZM14.0692 12.5521H10.8791V7.74088H14.0692C15.3876 7.74088 16.4748 8.80435 16.4748 10.1465C16.4748 11.473 15.3957 12.5521 14.0692 12.5521Z" fill="black"/>
<path d="M12.5 0C5.60747 0 0 5.60747 0 12.5C0 19.3925 5.60747 25 12.5 25C19.3925 25 25 19.3925 25 12.5C25 5.60747 19.3925 0 12.5 0ZM12.5 23.5352C6.41519 23.5352 1.46484 18.5848 1.46484 12.5C1.46484 6.41519 6.41519 1.46484 12.5 1.46484C18.5848 1.46484 23.5352 6.41519 23.5352 12.5C23.5352 18.5848 18.5848 23.5352 12.5 23.5352Z" fill="black"/>
</svg>
